<svg version="1.1" id="Layer_1" xmlns="http://www.w3.org/2000/svg" xmlns:xlink="http://www.w3.org/1999/xlink" x="0px" y="0px"
	 width="100%" viewBox="0 0 2000 676" enable-background="new 0 0 2000 676" xml:space="preserve">
<path fill="#000000" opacity="1.000000" stroke="none" 
	d="
M1279.000000,677.000000 
	C852.666687,677.000000 426.833344,677.000000 1.000000,677.000000 
	C1.000000,451.666656 1.000000,226.333328 1.000000,1.000000 
	C667.666687,1.000000 1334.333374,1.000000 2001.000000,1.000000 
	C2001.000000,226.333328 2001.000000,451.666656 2001.000000,677.000000 
	C1760.500000,677.000000 1520.000000,677.000000 1279.000000,677.000000 
M228.480682,509.000305 
	C237.006165,509.666870 245.524689,510.744202 254.059006,510.888916 
	C263.314850,511.045837 272.627716,510.776611 281.839264,509.894501 
	C294.674225,508.665375 307.526398,507.191406 320.214539,504.939606 
	C348.548767,499.911072 374.492676,488.694183 398.496063,472.962067 
	C414.689087,462.348938 428.866821,449.335815 442.148071,435.327423 
	C452.763885,424.130402 461.579285,411.571136 468.923553,398.055023 
	C477.161987,382.893250 483.610168,366.969421 488.063324,350.240326 
	C492.992676,331.722382 496.390747,312.972504 496.943542,293.801971 
	C497.256226,282.958130 497.106476,272.096375 496.954132,261.245667 
	C496.880249,255.984177 496.583801,250.696381 495.924988,245.478958 
	C494.725739,235.981842 494.581604,236.000046 484.933838,236.000046 
	C411.935455,236.000046 338.937073,236.000031 265.938690,236.000046 
	C264.020050,236.000046 262.101410,236.000061 260.236694,236.000061 
	C260.236694,259.670135 260.236694,282.609558 260.236694,306.020172 
	C315.217041,306.020172 369.964081,306.020172 425.238678,306.020172 
	C424.765106,308.946381 424.405426,311.321747 423.993774,313.688080 
	C421.341888,328.932007 417.294983,343.792175 410.589020,357.762543 
	C403.222839,373.108337 393.145691,386.338104 380.132721,397.591339 
	C369.810516,406.517609 358.932739,414.437622 347.031433,420.953308 
	C323.419617,433.880249 297.688690,439.563324 271.147430,440.720459 
	C257.436737,441.318176 243.520111,439.657745 229.838440,437.907928 
	C205.943619,434.851959 184.055069,425.847870 163.840637,412.911316 
	C145.487228,401.165802 129.449722,386.887817 116.490318,369.161469 
	C107.408440,356.738892 99.611534,343.696381 93.799576,329.453979 
	C85.990700,310.318115 80.674431,290.595459 80.043022,269.828644 
	C79.784279,261.318604 79.550018,252.763611 80.124481,244.284622 
	C80.719749,235.498444 81.698212,226.645416 83.586540,218.058578 
	C87.786942,198.957977 94.617088,180.820801 104.539040,163.820770 
	C115.323616,145.342743 128.736832,129.124115 145.138489,115.523033 
	C158.954071,104.066490 174.286911,94.950813 190.910004,87.951622 
	C211.130844,79.437599 232.236755,74.956444 254.013443,74.180748 
	C264.667847,73.801231 275.416229,75.051514 286.075928,76.054688 
	C304.198639,77.760185 321.266144,83.382317 337.727844,90.958778 
	C354.317719,98.594200 368.848145,109.333595 382.563629,121.206650 
	C385.144440,123.440781 386.514618,123.118469 388.683899,120.939041 
	C404.083862,105.467110 419.579468,90.090378 435.505981,74.223656 
	C426.758911,66.782341 418.601593,59.051426 409.646179,52.394115 
	C392.671173,39.775196 374.497314,29.113346 354.735443,21.296452 
	C327.774109,10.631780 299.742126,5.118227 270.855927,4.109203 
	C260.782562,3.757330 250.631653,4.265992 240.576843,5.107083 
	C229.517075,6.032242 218.368210,7.042516 207.538071,9.336916 
	C180.195770,15.129478 154.391098,25.198727 130.223816,39.337467 
	C104.198738,54.563084 81.243362,73.578506 62.001953,96.719925 
	C47.002655,114.759415 34.573296,134.522827 24.839066,156.067902 
	C11.712688,185.120926 4.905578,215.568176 3.149630,247.154327 
	C2.180442,264.588196 3.944441,281.949554 6.786834,299.280792 
	C10.767579,323.553040 18.519329,346.499084 29.240078,368.419281 
	C39.746513,389.901276 53.573780,409.344788 69.654182,427.000946 
	C82.415146,441.012360 96.854134,453.259277 112.431442,464.158295 
	C129.446152,476.063019 147.652557,485.696472 166.873688,493.419983 
	C186.405289,501.268219 206.738190,506.136566 228.480682,509.000305 
M1266.984497,243.522232 
	C1261.447510,251.741089 1255.343628,259.639679 1250.484375,268.241394 
	C1238.030396,290.287476 1231.359375,314.319550 1230.295410,339.463745 
	C1229.708496,353.338013 1230.736450,367.597748 1233.386230,381.226868 
	C1239.180664,411.028290 1252.913940,437.333252 1273.377319,459.795135 
	C1286.709839,474.429688 1302.452026,486.226715 1320.256714,494.995819 
	C1336.855957,503.171326 1354.278076,508.321320 1372.869263,510.236572 
	C1386.186157,511.608551 1399.352051,511.311066 1412.185181,508.672028 
	C1434.642944,504.053802 1454.799316,494.392273 1470.551636,477.003326 
	C1471.642090,475.799530 1473.010498,474.847443 1474.005981,473.988495 
	C1474.005981,485.717499 1474.657471,497.017792 1473.808350,508.204132 
	C1473.073853,517.881897 1471.482910,527.676758 1468.775879,536.985168 
	C1462.928589,557.091309 1450.746826,572.881042 1431.927246,582.305176 
	C1414.968872,590.797241 1396.775269,593.560303 1377.640381,591.178528 
	C1357.184082,588.632385 1340.569946,579.224670 1326.510132,564.872253 
	C1317.824829,556.006348 1311.241455,545.539917 1306.387695,533.815186 
	C1285.060547,542.724915 1263.922119,551.555786 1242.815674,560.373352 
	C1254.456787,586.278625 1270.311035,607.869629 1292.319458,624.966431 
	C1316.864868,644.034058 1344.727173,654.352905 1375.352173,656.795715 
	C1393.252930,658.223694 1411.231079,656.849670 1428.941528,653.041809 
	C1455.153076,647.406250 1478.438843,635.972595 1497.825562,617.477966 
	C1510.171387,605.700317 1519.526489,591.585938 1526.642212,575.925720 
	C1538.756714,549.263977 1543.723145,521.052002 1543.844604,492.164032 
	C1544.253296,394.844757 1544.000122,297.522705 1544.000244,200.201721 
	C1544.000244,198.258026 1544.000366,196.314316 1544.000366,194.314636 
	C1520.735352,194.314636 1498.012817,194.314636 1474.831665,194.314636 
	C1474.831665,203.337158 1474.831665,212.053406 1474.831665,222.183685 
	C1469.714844,217.124603 1465.895874,212.510193 1461.277100,208.926315 
	C1440.525391,192.824280 1416.603394,185.163803 1390.600342,184.152588 
	C1382.449951,183.835632 1374.203857,185.105820 1366.045410,186.034546 
	C1344.475220,188.490021 1324.894897,196.629578 1306.638184,207.973755 
	C1291.584961,217.327393 1278.767212,229.345825 1266.984497,243.522232 
M1025.287109,510.009094 
	C1027.546265,510.339417 1029.822266,511.039948 1032.061768,510.938019 
	C1043.746948,510.406097 1055.451904,509.989136 1067.094971,508.927765 
	C1083.089355,507.469666 1098.213013,502.390991 1112.626221,495.619080 
	C1132.926514,486.081177 1151.393677,473.722351 1165.443115,455.889282 
	C1172.782471,446.573303 1180.107422,437.035004 1185.849365,426.712921 
	C1200.385864,400.582123 1206.717773,372.278015 1204.934204,342.353912 
	C1204.360107,332.724091 1203.544922,323.049103 1201.919556,313.552338 
	C1196.540771,282.125458 1181.757080,255.335403 1159.846191,232.535767 
	C1149.636108,221.911743 1137.740479,213.286850 1124.856689,205.834335 
	C1099.819458,191.351730 1072.706543,185.114716 1044.213745,184.148331 
	C1035.563599,183.854935 1026.840576,185.192276 1018.173584,186.020996 
	C1001.197632,187.644257 985.080200,192.523438 969.715576,199.760849 
	C946.879639,210.517654 927.439026,225.537201 911.769775,245.555191 
	C901.725708,258.386810 893.725037,272.273071 888.104004,287.425964 
	C879.790588,309.836426 876.203796,332.961304 877.803101,357.030212 
	C878.752319,371.316986 880.755005,385.257233 885.065674,398.836456 
	C895.359619,431.263855 914.022095,457.993225 941.187622,478.426575 
	C956.577942,490.002930 973.592102,498.972961 992.339417,503.853394 
	C1002.834717,506.585571 1013.674194,507.995483 1025.287109,510.009094 
M603.965759,488.495209 
	C615.396912,493.546722 626.590271,499.259460 638.320923,503.478180 
	C652.216125,508.475403 666.860413,510.885162 681.655518,510.871735 
	C692.519592,510.861877 703.414185,509.994141 714.238464,508.930847 
	C729.606689,507.421204 744.210999,502.715424 758.157959,496.297119 
	C779.219604,486.604767 797.729980,473.462494 813.009766,455.690125 
	C825.435303,441.237640 835.214966,425.311340 841.864014,407.618378 
	C849.925293,386.167145 853.388000,363.930786 852.189575,340.841217 
	C851.479675,327.163025 849.674927,313.860260 846.092590,300.668671 
	C839.176392,275.200226 826.256226,253.148636 808.374512,233.997818 
	C798.942810,223.896759 787.852173,215.787857 776.098633,208.382156 
	C750.603088,192.317780 722.520142,185.514420 692.925964,184.169601 
	C683.613464,183.746399 674.190247,185.125183 664.852295,186.033875 
	C648.320679,187.642593 632.518250,192.344864 617.550476,199.294678 
	C596.681641,208.984451 578.433899,222.307312 563.360291,239.991501 
	C550.802734,254.723953 540.599243,270.839691 534.670410,289.150513 
	C530.381104,302.397949 527.789795,316.244080 525.172180,329.962677 
	C523.914917,336.551575 523.965393,343.472260 524.125854,350.226013 
	C524.281372,356.770813 525.376587,363.290558 525.989746,369.827789 
	C527.495972,385.886414 531.860107,401.237274 538.491455,415.824982 
	C548.665833,438.206604 562.668457,457.925354 582.018372,473.379059 
	C588.747437,478.753204 596.214355,483.203583 603.965759,488.495209 
M1928.711426,331.085785 
	C1929.209229,331.043610 1929.758789,331.124878 1930.197266,330.941223 
	C1942.518921,325.779755 1954.829956,320.592804 1967.141602,315.407227 
	C1973.701538,312.644165 1980.259277,309.875702 1987.099854,306.990784 
	C1982.445923,295.681976 1978.396973,284.679932 1973.457886,274.093170 
	C1964.211670,254.274246 1951.356079,237.020584 1935.496948,221.876389 
	C1921.398315,208.413391 1905.278320,198.353088 1886.972534,192.027649 
	C1867.395020,185.262787 1847.272339,182.898392 1826.445190,184.791336 
	C1811.823853,186.120270 1797.671387,188.879501 1784.099365,194.125809 
	C1749.628662,207.450684 1723.500977,230.519028 1705.595703,262.861084 
	C1692.861206,285.863434 1686.801147,310.798950 1685.114502,336.794250 
	C1684.065918,352.952576 1685.536743,369.044342 1688.953979,384.946106 
	C1691.912964,398.716553 1696.093628,412.152954 1703.010376,424.323334 
	C1709.267334,435.333069 1716.961548,445.560455 1724.420898,455.843323 
	C1733.136108,467.857361 1744.799072,476.845062 1757.013550,484.914337 
	C1769.413452,493.106110 1782.818726,499.440918 1797.183350,503.651794 
	C1811.714478,507.911499 1826.499634,510.794037 1841.618286,510.862915 
	C1852.148071,510.910858 1862.721558,510.031921 1873.207275,508.921844 
	C1888.237061,507.330688 1902.489990,502.710449 1916.183350,496.370605 
	C1929.916138,490.012482 1942.345459,481.778198 1953.861084,471.869263 
	C1965.379150,461.958008 1975.317383,450.867004 1983.969238,438.134155 
	C1965.138794,425.523743 1946.634766,413.131958 1927.501465,400.318695 
	C1908.063354,429.202087 1881.920044,446.126160 1846.661987,445.922913 
	C1811.062988,445.717712 1785.403687,429.066864 1769.200317,397.325012 
	C1771.057983,396.527618 1772.843506,395.735474 1774.648438,394.990662 
	C1788.331909,389.343903 1802.035034,383.744232 1815.701660,378.057098 
	C1836.450317,369.423065 1857.158081,360.690704 1877.914185,352.074829 
	C1894.595703,345.150421 1911.323364,338.337128 1928.711426,331.085785 
M1585.000122,210.500000 
	C1585.000122,307.228729 1585.000122,403.957489 1585.000122,500.673157 
	C1609.047974,500.673157 1632.294800,500.673157 1655.600464,500.673157 
	C1655.600464,341.335907 1655.600464,182.325638 1655.600464,23.326759 
	C1631.952637,23.326759 1608.705811,23.326759 1585.000122,23.326759 
	C1585.000122,85.601601 1585.000122,147.550797 1585.000122,210.500000 
z"/>
<path fill="#4285F4" opacity="1.000000" stroke="none" 
	d="
M228.024261,509.000183 
	C206.738190,506.136566 186.405289,501.268219 166.873688,493.419983 
	C147.652557,485.696472 129.446152,476.063019 112.431442,464.158295 
	C96.854134,453.259277 82.415146,441.012360 69.654182,427.000946 
	C53.573780,409.344788 39.746513,389.901276 29.240078,368.419281 
	C18.519329,346.499084 10.767579,323.553040 6.786834,299.280792 
	C3.944441,281.949554 2.180442,264.588196 3.149630,247.154327 
	C4.905578,215.568176 11.712688,185.120926 24.839066,156.067902 
	C34.573296,134.522827 47.002655,114.759415 62.001953,96.719925 
	C81.243362,73.578506 104.198738,54.563084 130.223816,39.337467 
	C154.391098,25.198727 180.195770,15.129478 207.538071,9.336916 
	C218.368210,7.042516 229.517075,6.032242 240.576843,5.107083 
	C250.631653,4.265992 260.782562,3.757330 270.855927,4.109203 
	C299.742126,5.118227 327.774109,10.631780 354.735443,21.296452 
	C374.497314,29.113346 392.671173,39.775196 409.646179,52.394115 
	C418.601593,59.051426 426.758911,66.782341 435.505981,74.223656 
	C419.579468,90.090378 404.083862,105.467110 388.683899,120.939041 
	C386.514618,123.118469 385.144440,123.440781 382.563629,121.206650 
	C368.848145,109.333595 354.317719,98.594200 337.727844,90.958778 
	C321.266144,83.382317 304.198639,77.760185 286.075928,76.054688 
	C275.416229,75.051514 264.667847,73.801231 254.013443,74.180748 
	C232.236755,74.956444 211.130844,79.437599 190.910004,87.951622 
	C174.286911,94.950813 158.954071,104.066490 145.138489,115.523033 
	C128.736832,129.124115 115.323616,145.342743 104.539040,163.820770 
	C94.617088,180.820801 87.786942,198.957977 83.586540,218.058578 
	C81.698212,226.645416 80.719749,235.498444 80.124481,244.284622 
	C79.550018,252.763611 79.784279,261.318604 80.043022,269.828644 
	C80.674431,290.595459 85.990700,310.318115 93.799576,329.453979 
	C99.611534,343.696381 107.408440,356.738892 116.490318,369.161469 
	C129.449722,386.887817 145.487228,401.165802 163.840637,412.911316 
	C184.055069,425.847870 205.943619,434.851959 229.838440,437.907928 
	C243.520111,439.657745 257.436737,441.318176 271.147430,440.720459 
	C297.688690,439.563324 323.419617,433.880249 347.031433,420.953308 
	C358.932739,414.437622 369.810516,406.517609 380.132721,397.591339 
	C393.145691,386.338104 403.222839,373.108337 410.589020,357.762543 
	C417.294983,343.792175 421.341888,328.932007 423.993774,313.688080 
	C424.405426,311.321747 424.765106,308.946381 425.238678,306.020172 
	C369.964081,306.020172 315.217041,306.020172 260.236694,306.020172 
	C260.236694,282.609558 260.236694,259.670135 260.236694,236.000061 
	C262.101410,236.000061 264.020050,236.000046 265.938690,236.000046 
	C338.937073,236.000031 411.935455,236.000046 484.933838,236.000046 
	C494.581604,236.000046 494.725739,235.981842 495.924988,245.478958 
	C496.583801,250.696381 496.880249,255.984177 496.954132,261.245667 
	C497.106476,272.096375 497.256226,282.958130 496.943542,293.801971 
	C496.390747,312.972504 492.992676,331.722382 488.063324,350.240326 
	C483.610168,366.969421 477.161987,382.893250 468.923553,398.055023 
	C461.579285,411.571136 452.763885,424.130402 442.148071,435.327423 
	C428.866821,449.335815 414.689087,462.348938 398.496063,472.962067 
	C374.492676,488.694183 348.548767,499.911072 320.214539,504.939606 
	C307.526398,507.191406 294.674225,508.665375 281.839264,509.894501 
	C272.627716,510.776611 263.314850,511.045837 254.059006,510.888916 
	C245.524689,510.744202 237.006165,509.666870 228.024261,509.000183 
z"/>
<path fill="#4285F4" opacity="1.000000" stroke="none" 
	d="
M1267.238037,243.263916 
	C1278.767212,229.345825 1291.584961,217.327393 1306.638184,207.973755 
	C1324.894897,196.629578 1344.475220,188.490021 1366.045410,186.034546 
	C1374.203857,185.105820 1382.449951,183.835632 1390.600342,184.152588 
	C1416.603394,185.163803 1440.525391,192.824280 1461.277100,208.926315 
	C1465.895874,212.510193 1469.714844,217.124603 1474.831665,222.183685 
	C1474.831665,212.053406 1474.831665,203.337158 1474.831665,194.314636 
	C1498.012817,194.314636 1520.735352,194.314636 1544.000366,194.314636 
	C1544.000366,196.314316 1544.000244,198.258026 1544.000244,200.201721 
	C1544.000122,297.522705 1544.253296,394.844757 1543.844604,492.164032 
	C1543.723145,521.052002 1538.756714,549.263977 1526.642212,575.925720 
	C1519.526489,591.585938 1510.171387,605.700317 1497.825562,617.477966 
	C1478.438843,635.972595 1455.153076,647.406250 1428.941528,653.041809 
	C1411.231079,656.849670 1393.252930,658.223694 1375.352173,656.795715 
	C1344.727173,654.352905 1316.864868,644.034058 1292.319458,624.966431 
	C1270.311035,607.869629 1254.456787,586.278625 1242.815674,560.373352 
	C1263.922119,551.555786 1285.060547,542.724915 1306.387695,533.815186 
	C1311.241455,545.539917 1317.824829,556.006348 1326.510132,564.872253 
	C1340.569946,579.224670 1357.184082,588.632385 1377.640381,591.178528 
	C1396.775269,593.560303 1414.968872,590.797241 1431.927246,582.305176 
	C1450.746826,572.881042 1462.928589,557.091309 1468.775879,536.985168 
	C1471.482910,527.676758 1473.073853,517.881897 1473.808350,508.204132 
	C1474.657471,497.017792 1474.005981,485.717499 1474.005981,473.988495 
	C1473.010498,474.847443 1471.642090,475.799530 1470.551636,477.003326 
	C1454.799316,494.392273 1434.642944,504.053802 1412.185181,508.672028 
	C1399.352051,511.311066 1386.186157,511.608551 1372.869263,510.236572 
	C1354.278076,508.321320 1336.855957,503.171326 1320.256714,494.995819 
	C1302.452026,486.226715 1286.709839,474.429688 1273.377319,459.795135 
	C1252.913940,437.333252 1239.180664,411.028290 1233.386230,381.226868 
	C1230.736450,367.597748 1229.708496,353.338013 1230.295410,339.463745 
	C1231.359375,314.319550 1238.030396,290.287476 1250.484375,268.241394 
	C1255.343628,259.639679 1261.447510,251.741089 1267.238037,243.263916 
M1464.531250,404.952728 
	C1465.021362,403.923553 1465.423096,402.840424 1466.014648,401.873322 
	C1475.631714,386.150726 1479.416992,368.717712 1479.793091,350.651947 
	C1479.982178,341.568085 1478.579956,332.331635 1476.898804,323.351135 
	C1472.157227,298.022644 1459.407593,277.456573 1437.874634,263.099823 
	C1422.496826,252.847000 1405.471191,248.020645 1386.603394,249.830185 
	C1376.223633,250.825668 1366.295044,253.080109 1357.095459,257.565552 
	C1335.873047,267.912964 1320.673218,284.168304 1311.459106,306.034485 
	C1302.533691,327.215637 1300.453003,349.159485 1305.362549,371.385651 
	C1310.186035,393.221954 1320.758057,412.027191 1338.672119,426.221527 
	C1360.779907,443.738739 1385.519165,450.068848 1413.020752,443.407013 
	C1435.229980,438.027191 1451.723999,424.462036 1464.531250,404.952728 
z"/>
<path fill="#FBBC05" opacity="1.000000" stroke="none" 
	d="
M1024.822876,510.005127 
	C1013.674194,507.995483 1002.834717,506.585571 992.339417,503.853394 
	C973.592102,498.972961 956.577942,490.002930 941.187622,478.426575 
	C914.022095,457.993225 895.359619,431.263855 885.065674,398.836456 
	C880.755005,385.257233 878.752319,371.316986 877.803101,357.030212 
	C876.203796,332.961304 879.790588,309.836426 888.104004,287.425964 
	C893.725037,272.273071 901.725708,258.386810 911.769775,245.555191 
	C927.439026,225.537201 946.879639,210.517654 969.715576,199.760849 
	C985.080200,192.523438 1001.197632,187.644257 1018.173584,186.020996 
	C1026.840576,185.192276 1035.563599,183.854935 1044.213745,184.148331 
	C1072.706543,185.114716 1099.819458,191.351730 1124.856689,205.834335 
	C1137.740479,213.286850 1149.636108,221.911743 1159.846191,232.535767 
	C1181.757080,255.335403 1196.540771,282.125458 1201.919556,313.552338 
	C1203.544922,323.049103 1204.360107,332.724091 1204.934204,342.353912 
	C1206.717773,372.278015 1200.385864,400.582123 1185.849365,426.712921 
	C1180.107422,437.035004 1172.782471,446.573303 1165.443115,455.889282 
	C1151.393677,473.722351 1132.926514,486.081177 1112.626221,495.619080 
	C1098.213013,502.390991 1083.089355,507.469666 1067.094971,508.927765 
	C1055.451904,509.989136 1043.746948,510.406097 1032.061768,510.938019 
	C1029.822266,511.039948 1027.546265,510.339417 1024.822876,510.005127 
M1072.389160,254.996567 
	C1057.352783,250.004715 1042.253906,248.014816 1026.294434,250.809158 
	C1003.855896,254.737930 985.680908,265.827148 971.815002,283.046356 
	C952.684814,306.802948 946.614441,334.831390 951.207520,364.682312 
	C955.173950,390.460602 967.312195,412.106995 988.523926,427.989197 
	C1010.432434,444.393097 1035.002197,449.785553 1061.562622,443.597321 
	C1082.630005,438.688873 1099.689453,426.868988 1112.807861,409.640167 
	C1125.733765,392.664398 1131.923218,373.139954 1132.831909,352.063019 
	C1133.189697,343.764282 1132.299438,335.273560 1130.868042,327.063690 
	C1127.580078,308.205719 1119.354248,291.696716 1106.190674,277.559357 
	C1096.822021,267.497711 1085.399170,260.773315 1072.389160,254.996567 
z"/>
<path fill="#EA4335" opacity="1.000000" stroke="none" 
	d="
M603.655029,488.285553 
	C596.214355,483.203583 588.747437,478.753204 582.018372,473.379059 
	C562.668457,457.925354 548.665833,438.206604 538.491455,415.824982 
	C531.860107,401.237274 527.495972,385.886414 525.989746,369.827789 
	C525.376587,363.290558 524.281372,356.770813 524.125854,350.226013 
	C523.965393,343.472260 523.914917,336.551575 525.172180,329.962677 
	C527.789795,316.244080 530.381104,302.397949 534.670410,289.150513 
	C540.599243,270.839691 550.802734,254.723953 563.360291,239.991501 
	C578.433899,222.307312 596.681641,208.984451 617.550476,199.294678 
	C632.518250,192.344864 648.320679,187.642593 664.852295,186.033875 
	C674.190247,185.125183 683.613464,183.746399 692.925964,184.169601 
	C722.520142,185.514420 750.603088,192.317780 776.098633,208.382156 
	C787.852173,215.787857 798.942810,223.896759 808.374512,233.997818 
	C826.256226,253.148636 839.176392,275.200226 846.092590,300.668671 
	C849.674927,313.860260 851.479675,327.163025 852.189575,340.841217 
	C853.388000,363.930786 849.925293,386.167145 841.864014,407.618378 
	C835.214966,425.311340 825.435303,441.237640 813.009766,455.690125 
	C797.729980,473.462494 779.219604,486.604767 758.157959,496.297119 
	C744.210999,502.715424 729.606689,507.421204 714.238464,508.930847 
	C703.414185,509.994141 692.519592,510.861877 681.655518,510.871735 
	C666.860413,510.885162 652.216125,508.475403 638.320923,503.478180 
	C626.590271,499.259460 615.396912,493.546722 603.655029,488.285553 
M692.323730,446.000000 
	C695.755432,445.652893 699.230469,445.541718 702.612061,444.921265 
	C728.831787,440.110168 749.363464,426.131592 763.776917,404.149780 
	C779.610840,380.001831 783.459778,352.936066 777.764099,324.895935 
	C773.089355,301.881836 761.526611,282.576080 742.601501,268.117615 
	C719.406494,250.397064 693.356873,244.967758 665.408936,252.500763 
	C639.889404,259.379272 620.805603,275.357178 608.590698,298.950928 
	C597.256653,320.843353 594.458618,344.051880 598.993103,368.213745 
	C603.843079,394.056915 616.955627,414.733612 638.284546,430.000305 
	C654.084412,441.309418 671.993408,446.243805 692.323730,446.000000 
z"/>
<path fill="#EA4335" opacity="1.000000" stroke="none" 
	d="
M1928.370972,331.280121 
	C1911.323364,338.337128 1894.595703,345.150421 1877.914185,352.074829 
	C1857.158081,360.690704 1836.450317,369.423065 1815.701660,378.057098 
	C1802.035034,383.744232 1788.331909,389.343903 1774.648438,394.990662 
	C1772.843506,395.735474 1771.057983,396.527618 1769.200317,397.325012 
	C1785.403687,429.066864 1811.062988,445.717712 1846.661987,445.922913 
	C1881.920044,446.126160 1908.063354,429.202087 1927.501465,400.318695 
	C1946.634766,413.131958 1965.138794,425.523743 1983.969238,438.134155 
	C1975.317383,450.867004 1965.379150,461.958008 1953.861084,471.869263 
	C1942.345459,481.778198 1929.916138,490.012482 1916.183350,496.370605 
	C1902.489990,502.710449 1888.237061,507.330688 1873.207275,508.921844 
	C1862.721558,510.031921 1852.148071,510.910858 1841.618286,510.862915 
	C1826.499634,510.794037 1811.714478,507.911499 1797.183350,503.651794 
	C1782.818726,499.440918 1769.413452,493.106110 1757.013550,484.914337 
	C1744.799072,476.845062 1733.136108,467.857361 1724.420898,455.843323 
	C1716.961548,445.560455 1709.267334,435.333069 1703.010376,424.323334 
	C1696.093628,412.152954 1691.912964,398.716553 1688.953979,384.946106 
	C1685.536743,369.044342 1684.065918,352.952576 1685.114502,336.794250 
	C1686.801147,310.798950 1692.861206,285.863434 1705.595703,262.861084 
	C1723.500977,230.519028 1749.628662,207.450684 1784.099365,194.125809 
	C1797.671387,188.879501 1811.823853,186.120270 1826.445190,184.791336 
	C1847.272339,182.898392 1867.395020,185.262787 1886.972534,192.027649 
	C1905.278320,198.353088 1921.398315,208.413391 1935.496948,221.876389 
	C1951.356079,237.020584 1964.211670,254.274246 1973.457886,274.093170 
	C1978.396973,284.679932 1982.445923,295.681976 1987.099854,306.990784 
	C1980.259277,309.875702 1973.701538,312.644165 1967.141602,315.407227 
	C1954.829956,320.592804 1942.518921,325.779755 1930.197266,330.941223 
	C1929.758789,331.124878 1929.209229,331.043610 1928.370972,331.280121 
M1873.520874,254.903610 
	C1817.410278,229.741943 1753.994141,279.367004 1757.210327,341.707886 
	C1805.289185,321.755829 1853.236572,301.858337 1901.265015,281.927185 
	C1895.717651,268.732452 1885.761475,261.119324 1873.520874,254.903610 
z"/>
<path fill="#34A853" opacity="1.000000" stroke="none" 
	d="
M1585.000122,210.000000 
	C1585.000122,147.550797 1585.000122,85.601601 1585.000122,23.326759 
	C1608.705811,23.326759 1631.952637,23.326759 1655.600464,23.326759 
	C1655.600464,182.325638 1655.600464,341.335907 1655.600464,500.673157 
	C1632.294800,500.673157 1609.047974,500.673157 1585.000122,500.673157 
	C1585.000122,403.957489 1585.000122,307.228729 1585.000122,210.000000 
z"/>
<path fill="#000000" opacity="1.000000" stroke="none" 
	d="
M1464.269043,405.217651 
	C1451.723999,424.462036 1435.229980,438.027191 1413.020752,443.407013 
	C1385.519165,450.068848 1360.779907,443.738739 1338.672119,426.221527 
	C1320.758057,412.027191 1310.186035,393.221954 1305.362549,371.385651 
	C1300.453003,349.159485 1302.533691,327.215637 1311.459106,306.034485 
	C1320.673218,284.168304 1335.873047,267.912964 1357.095459,257.565552 
	C1366.295044,253.080109 1376.223633,250.825668 1386.603394,249.830185 
	C1405.471191,248.020645 1422.496826,252.847000 1437.874634,263.099823 
	C1459.407593,277.456573 1472.157227,298.022644 1476.898804,323.351135 
	C1478.579956,332.331635 1479.982178,341.568085 1479.793091,350.651947 
	C1479.416992,368.717712 1475.631714,386.150726 1466.014648,401.873322 
	C1465.423096,402.840424 1465.021362,403.923553 1464.269043,405.217651 
z"/>
<path fill="#000000" opacity="1.000000" stroke="none" 
	d="
M1072.787842,255.022903 
	C1085.399170,260.773315 1096.822021,267.497711 1106.190674,277.559357 
	C1119.354248,291.696716 1127.580078,308.205719 1130.868042,327.063690 
	C1132.299438,335.273560 1133.189697,343.764282 1132.831909,352.063019 
	C1131.923218,373.139954 1125.733765,392.664398 1112.807861,409.640167 
	C1099.689453,426.868988 1082.630005,438.688873 1061.562622,443.597321 
	C1035.002197,449.785553 1010.432434,444.393097 988.523926,427.989197 
	C967.312195,412.106995 955.173950,390.460602 951.207520,364.682312 
	C946.614441,334.831390 952.684814,306.802948 971.815002,283.046356 
	C985.680908,265.827148 1003.855896,254.737930 1026.294434,250.809158 
	C1042.253906,248.014816 1057.352783,250.004715 1072.787842,255.022903 
z"/>
<path fill="#000000" opacity="1.000000" stroke="none" 
	d="
M691.846863,446.000000 
	C671.993408,446.243805 654.084412,441.309418 638.284546,430.000305 
	C616.955627,414.733612 603.843079,394.056915 598.993103,368.213745 
	C594.458618,344.051880 597.256653,320.843353 608.590698,298.950928 
	C620.805603,275.357178 639.889404,259.379272 665.408936,252.500763 
	C693.356873,244.967758 719.406494,250.397064 742.601501,268.117615 
	C761.526611,282.576080 773.089355,301.881836 777.764099,324.895935 
	C783.459778,352.936066 779.610840,380.001831 763.776917,404.149780 
	C749.363464,426.131592 728.831787,440.110168 702.612061,444.921265 
	C699.230469,445.541718 695.755432,445.652893 691.846863,446.000000 
z"/>
<path fill="#000000" opacity="1.000000" stroke="none" 
	d="
M1873.898560,254.982269 
	C1885.761475,261.119324 1895.717651,268.732452 1901.265015,281.927185 
	C1853.236572,301.858337 1805.289185,321.755829 1757.210327,341.707886 
	C1753.994141,279.367004 1817.410278,229.741943 1873.898560,254.982269 
z"/>
</svg>