<svg version="1.1" id="Layer_1" xmlns="http://www.w3.org/2000/svg" xmlns:xlink="http://www.w3.org/1999/xlink" x="0px" y="0px"
	 width="100%" viewBox="0 0 500 500" enable-background="new 0 0 500 500" xml:space="preserve">
<path fill="#D8DFDD" opacity="1.000000" stroke="none" 
	d="
M285.000000,501.000000 
	C190.000015,501.000000 95.500046,501.000000 1.000051,501.000000 
	C1.000034,334.333405 1.000034,167.666794 1.000017,1.000140 
	C167.666565,1.000093 334.333130,1.000093 500.999756,1.000047 
	C500.999847,167.666519 500.999847,334.333038 500.999939,500.999786 
	C429.166656,501.000000 357.333344,501.000000 285.000000,501.000000 
M287.177887,172.405243 
	C287.376404,177.053528 287.718323,181.700958 287.746490,186.350281 
	C287.829468,200.064697 287.780884,200.064987 301.508453,199.944290 
	C313.348572,199.840179 313.370667,199.826874 313.075104,188.150803 
	C312.464722,164.036499 311.822601,139.922943 311.243683,115.807877 
	C311.124420,110.839157 311.115662,105.861916 311.264679,100.894867 
	C311.350494,98.035400 310.185394,97.022865 307.429169,97.164619 
	C302.119019,97.437721 296.801422,97.692009 291.486450,97.702072 
	C288.053345,97.708580 286.963318,99.070763 286.987885,102.500839 
	C287.152252,125.475670 287.129150,148.451843 287.177887,172.405243 
M254.995453,154.350861 
	C254.993500,155.183319 254.990021,156.015778 254.989807,156.848236 
	C254.986328,170.115952 255.083847,183.384964 254.914841,196.650558 
	C254.868118,200.317749 256.383881,201.271713 259.693390,201.064667 
	C263.676697,200.815460 267.692963,200.619949 271.668579,200.852356 
	C275.775208,201.092438 277.137970,199.661621 277.090363,195.465408 
	C276.878998,176.821045 277.087067,158.172180 276.919403,139.526947 
	C276.837921,130.468079 276.264130,121.413628 275.888367,111.716103 
	C268.221893,112.146935 261.343872,112.533447 254.995483,112.890205 
	C254.995483,126.883980 254.995483,140.133392 254.995453,154.350861 
M243.462784,176.011246 
	C243.639786,159.722351 243.887329,143.433350 243.861832,127.144760 
	C243.859756,125.820755 242.001862,123.372124 240.986328,123.361511 
	C234.733414,123.296188 228.474777,123.781418 221.383911,124.123795 
	C221.383911,149.202301 221.321365,173.767822 221.569672,198.330231 
	C221.582016,199.551086 224.196777,201.599762 225.772964,201.784409 
	C229.870728,202.264465 234.065964,201.859497 238.220535,201.923447 
	C241.723145,201.977356 243.200745,200.670242 243.089630,196.883987 
	C242.894897,190.246948 243.258301,183.593521 243.462784,176.011246 
M268.018341,82.599167 
	C245.821808,97.645439 221.203964,107.142799 195.568527,114.361977 
	C194.031067,114.794945 192.804565,116.332176 191.433350,117.355560 
	C193.147583,117.667702 195.001999,118.567200 196.553391,118.196960 
	C206.847855,115.740158 217.284714,113.625954 227.287949,110.252022 
	C253.917999,101.270126 279.276031,89.610710 301.449554,71.975700 
	C303.666962,75.331749 305.708954,78.422302 307.750946,81.512848 
	C308.179016,81.400444 308.607056,81.288033 309.035126,81.175629 
	C310.308777,71.301414 311.582397,61.427197 312.959595,50.750069 
	C302.750244,51.269039 293.430573,51.742790 282.520935,52.297356 
	C286.736359,56.010925 289.858582,58.761444 293.504913,61.973679 
	C285.073975,68.797607 276.826111,75.473343 268.018341,82.599167 
M207.116364,200.853622 
	C207.799301,199.557358 209.065109,198.266754 209.077774,196.963989 
	C209.268814,177.308044 209.303894,157.650497 209.343781,137.993271 
	C209.346985,136.416351 209.117249,134.838974 209.006683,133.403839 
	C202.343201,133.403839 196.283035,133.403839 188.865021,133.403839 
	C188.865021,154.604614 188.937256,175.406143 188.797989,196.206253 
	C188.773132,199.921112 189.970383,201.295624 193.687790,201.057907 
	C197.838257,200.792480 202.016617,200.963470 207.116364,200.853622 
M214.529572,273.793396 
	C212.821671,271.141602 211.077789,268.512146 209.412979,265.833557 
	C205.268402,259.165131 205.096939,259.081116 196.392151,260.684082 
	C196.392151,274.681702 196.392151,288.708038 196.392151,302.649078 
	C199.819077,302.649078 202.870148,302.649078 206.615326,302.649078 
	C206.615326,294.702209 206.615326,287.112915 206.615326,280.066559 
	C209.605850,282.400513 212.480865,286.377716 215.141617,286.239227 
	C217.867371,286.097382 220.383347,281.925903 223.454315,279.090576 
	C223.454315,287.078186 223.454315,294.916382 223.454315,302.821106 
	C227.099182,302.821106 230.053757,302.821106 233.308533,302.821106 
	C233.308533,288.575592 233.308533,274.527985 233.308533,260.528320 
	C224.227936,259.343384 224.241791,259.352051 219.811707,266.444031 
	C218.318573,268.834320 216.735474,271.168396 214.529572,273.793396 
M278.036896,264.558441 
	C271.475037,273.198944 273.654053,283.047089 274.945068,292.392700 
	C275.984802,299.919189 282.996307,303.824097 291.591431,303.383392 
	C299.851105,302.959869 305.605804,298.388885 306.641113,290.827240 
	C307.147675,287.127625 306.728851,283.301270 306.728851,279.335144 
	C300.949768,279.335144 295.565277,279.335144 290.102844,279.335144 
	C290.102844,282.058777 290.102844,284.473145 290.102844,286.974274 
	C292.466217,287.142853 294.551788,287.291626 296.653412,287.441528 
	C297.405975,291.891388 295.507568,294.275238 291.566010,294.655945 
	C287.787506,295.020844 284.760284,293.132263 284.437531,289.268982 
	C283.996857,283.994202 283.892792,278.581665 284.650421,273.374542 
	C284.924316,271.492065 287.925903,269.047394 290.006165,268.677399 
	C291.808136,268.356873 294.187714,270.441864 296.066223,271.802795 
	C296.830200,272.356354 296.944489,273.806580 297.272919,274.641602 
	C300.551239,274.641602 303.498077,274.641602 306.685150,274.641602 
	C307.044342,269.488495 305.055359,265.744904 301.227814,262.907410 
	C294.895081,258.212708 285.576508,258.710693 278.036896,264.558441 
M239.825302,262.754425 
	C239.825302,276.009735 239.825302,289.265076 239.825302,302.744110 
	C250.213303,302.744110 260.080383,302.744110 270.157227,302.744110 
	C270.157227,299.902222 270.157227,297.327423 270.157227,294.195557 
	C263.323242,294.195557 256.781616,294.195557 249.752548,294.195557 
	C249.752548,282.595520 249.752548,271.545837 249.752548,259.202271 
	C245.942963,260.205109 242.897736,261.006744 239.825302,262.754425 
M58.280640,389.414734 
	C58.280640,392.183105 58.280640,394.951477 58.280640,397.662842 
	C61.025013,397.662842 63.076099,397.662842 65.596756,397.662842 
	C65.596756,392.268463 65.596756,387.224640 65.596756,381.907135 
	C67.799057,383.754700 69.619339,386.469879 71.320656,386.397308 
	C73.285599,386.313446 75.145691,383.772491 77.462288,381.980530 
	C77.462288,387.407867 77.462288,392.516602 77.462288,397.739929 
	C79.945145,397.739929 82.010208,397.739929 84.009018,397.739929 
	C84.009018,387.761871 84.009018,378.071472 84.009018,368.565613 
	C75.355949,365.821411 75.368431,374.253754 71.419418,377.481506 
	C67.392868,374.326721 67.390305,365.420410 58.280651,368.847839 
	C58.280651,375.214996 58.280651,381.824890 58.280640,389.414734 
M239.062775,396.224030 
	C239.062775,391.678009 239.062775,387.132019 239.062775,382.585999 
	C242.053925,386.093597 244.453796,389.644958 246.282211,393.469543 
	C248.247604,397.580597 250.913788,399.202789 255.473419,397.435944 
	C255.473419,387.879059 255.473419,378.298523 255.473419,368.444336 
	C253.160828,368.444336 251.125595,368.444336 248.660507,368.444336 
	C248.660507,373.482147 248.660507,378.216736 248.660507,382.951324 
	C245.539001,379.643402 243.061142,376.157898 241.261765,372.351715 
	C239.325256,368.255371 236.593399,367.216095 232.060440,368.791138 
	C232.060440,373.491089 232.060455,378.280670 232.060455,383.070251 
	C232.060455,387.993469 232.060440,392.916687 232.060440,398.458862 
	C234.921082,397.917877 236.934280,397.537140 239.062775,396.224030 
M118.035606,381.510681 
	C118.035606,386.941254 118.035606,392.371796 118.035606,397.814880 
	C120.692139,397.814880 122.636009,397.814880 125.028610,397.814880 
	C125.028610,393.872253 125.028610,390.110809 125.028610,386.307983 
	C128.534485,386.694855 128.534500,386.694855 131.302811,392.889252 
	C133.945251,398.801941 133.945236,398.801941 140.649124,397.268799 
	C138.897766,393.479401 137.167496,389.735596 135.277451,385.646118 
	C139.661163,383.259125 141.489746,379.715790 140.256073,374.855103 
	C139.274536,370.987762 136.612091,368.714478 132.887589,368.397583 
	C128.144653,367.994049 123.341377,368.299835 118.035606,368.299835 
	C118.035606,372.621704 118.035606,376.569458 118.035606,381.510681 
M338.401031,386.262817 
	C338.455658,383.436005 338.206116,380.555176 338.694580,377.805450 
	C338.934906,376.452820 340.339722,374.691467 341.586395,374.305084 
	C342.851593,373.913025 345.529510,374.571777 345.926971,375.489746 
	C347.720795,379.632690 350.799652,378.291321 353.954102,378.135406 
	C354.168549,373.034515 351.556702,370.214783 347.289459,368.643890 
	C340.578491,366.173401 333.026703,369.160889 331.981750,375.448090 
	C329.902222,387.959869 330.895538,395.706329 339.438293,397.966797 
	C339.757690,398.051300 340.097198,398.058594 340.426819,398.105469 
	C350.579681,399.548920 355.598297,393.325897 353.576202,381.682281 
	C349.897949,381.682281 346.202881,381.682281 342.135864,381.682281 
	C342.248566,383.694824 342.336426,385.263489 342.418579,386.730255 
	C344.289185,387.030518 345.678467,387.253510 347.067749,387.476501 
	C347.292358,387.902557 347.516968,388.328613 347.741577,388.754669 
	C346.294647,389.867828 344.972443,391.659149 343.374786,391.953033 
	C340.047180,392.565094 338.667389,390.256683 338.401031,386.262817 
M279.241211,381.261932 
	C276.325958,381.261932 273.410675,381.261932 270.118927,381.261932 
	C270.249146,383.682922 270.333679,385.254761 270.412933,386.728027 
	C272.278473,387.025818 273.671112,387.248138 275.063721,387.470459 
	C275.296967,387.951019 275.530212,388.431610 275.763458,388.912170 
	C274.147186,389.973328 272.448120,391.970367 270.937469,391.836823 
	C269.373505,391.698486 267.012756,389.674896 266.731079,388.155151 
	C266.106232,384.784088 266.296082,381.179382 266.718048,377.739136 
	C266.878601,376.430084 268.394135,374.655182 269.643463,374.288025 
	C270.913544,373.914795 273.578583,374.612366 273.965271,375.537811 
	C275.750580,379.810120 278.859344,378.236908 281.782379,378.133850 
	C281.615082,372.181427 278.475281,368.726135 272.824219,368.010986 
	C266.374542,367.194763 261.086273,370.018402 259.940155,375.514587 
	C259.203674,379.046234 259.240295,382.787781 259.306335,386.428436 
	C259.467682,395.320343 266.039001,400.538757 274.387329,397.685608 
	C277.352234,396.672302 280.408875,393.382935 281.567169,390.409424 
	C282.545654,387.897552 284.135498,383.726074 279.241211,381.261932 
M311.787811,396.638855 
	C316.520721,393.041840 319.276093,379.771332 315.716217,373.757172 
	C310.628082,365.161163 301.980804,368.941467 294.402771,368.168274 
	C294.402771,378.394012 294.402771,388.076752 294.402771,398.496246 
	C300.231049,397.958160 305.638641,397.458923 311.787811,396.638855 
M147.484253,398.023407 
	C148.630798,397.957428 149.777344,397.891479 150.696548,397.838562 
	C151.392807,394.018494 152.051529,390.404449 152.710236,386.790436 
	C153.249329,386.824371 153.788406,386.858337 154.327499,386.892273 
	C155.990265,389.735535 157.175995,393.075012 159.460693,395.271332 
	C161.430649,397.165131 164.651978,397.757233 167.320068,398.924835 
	C167.651520,398.380615 167.982971,397.836426 168.314423,397.292206 
	C165.707108,392.928009 163.213989,388.489502 160.444183,384.230988 
	C159.065582,382.111450 159.003387,380.595093 160.697647,378.580750 
	C163.309341,375.475677 165.558792,372.065918 167.991302,368.745270 
	C158.182526,365.210632 157.214966,375.130127 151.396515,378.989136 
	C151.396515,375.012115 151.396515,371.778778 151.396515,368.476318 
	C148.803116,368.476318 146.749786,368.476318 144.239349,368.476318 
	C144.239349,377.759644 144.178986,386.702148 144.341888,395.640564 
	C144.356583,396.447296 145.811508,397.227814 147.484253,398.023407 
M413.652252,375.759216 
	C413.128845,374.185120 412.393005,372.645813 412.128052,371.029358 
	C411.635254,368.022949 409.589874,367.970490 407.312073,368.130890 
	C404.991058,368.294312 402.380493,367.271057 401.337341,370.860596 
	C398.748413,379.769348 395.856079,388.589966 392.971863,397.809601 
	C396.411621,397.553040 399.785767,399.849365 401.945587,394.768524 
	C402.485962,393.497253 410.920563,393.428680 411.493378,394.705963 
	C413.688202,399.600006 416.912750,397.717255 420.515198,397.761536 
	C418.230652,390.428680 416.063934,383.474030 413.652252,375.759216 
M88.259239,395.007904 
	C88.590836,396.004669 89.139557,397.888885 89.222343,397.868652 
	C91.366669,397.344025 93.952446,397.158386 95.443855,395.798065 
	C97.345840,394.063141 105.642723,392.389954 106.316200,394.615967 
	C107.947166,400.006653 111.615929,397.524658 115.058830,397.844177 
	C112.223740,388.791046 109.344261,380.144135 106.860641,371.385010 
	C105.919701,368.066528 103.862907,368.058777 101.243301,368.091278 
	C98.664169,368.123260 96.608597,368.011078 95.688087,371.420319 
	C93.614456,379.100342 90.994629,386.632904 88.259239,395.007904 
M171.041306,375.607880 
	C171.041306,383.012238 171.041306,390.416565 171.041306,397.635437 
	C178.548782,397.635437 185.270111,397.635437 191.938751,397.635437 
	C191.938751,395.644897 191.938751,394.036591 191.938751,391.963135 
	C187.318848,391.963135 182.898071,391.963135 178.344437,391.963135 
	C178.344437,389.765472 178.344437,388.041016 178.344437,385.926605 
	C181.336990,385.926605 184.093079,385.926605 187.102081,385.926605 
	C187.102081,383.783997 187.102081,382.036163 187.102081,379.905792 
	C184.074738,379.905792 181.311646,379.905792 178.465363,379.905792 
	C178.465363,377.836609 178.465363,376.157410 178.465363,373.978882 
	C183.234085,373.978882 187.635910,373.978882 192.233765,373.978882 
	C192.115097,371.847778 192.025406,370.236877 191.926453,368.459625 
	C184.915726,368.459625 178.203186,368.459625 171.041306,368.459625 
	C171.041306,370.726379 171.041306,372.683167 171.041306,375.607880 
M194.519958,372.975403 
	C196.929306,373.616760 199.338638,374.258148 202.467377,375.091003 
	C202.467377,382.367279 202.467377,390.084900 202.467377,397.831848 
	C205.087570,397.831848 207.046356,397.831848 209.677490,397.831848 
	C209.677490,389.937500 209.677490,382.218445 209.677490,374.443420 
	C212.635529,374.290192 214.928116,374.171448 217.385498,374.044159 
	C217.385498,372.066284 217.385498,370.339233 217.385498,368.119232 
	C210.768387,368.119232 204.475250,368.293671 198.198578,368.047882 
	C194.909607,367.919067 194.065460,369.299011 194.519958,372.975403 
M367.789978,371.377258 
	C368.039795,377.231628 373.490387,372.304474 375.726349,375.820221 
	C375.726349,382.546143 375.726349,390.119049 375.726349,397.701965 
	C378.258789,397.701965 380.321960,397.701965 382.811340,397.701965 
	C382.811340,389.805634 382.811340,382.218842 382.811340,374.493134 
	C385.675751,374.311005 388.117004,374.155731 390.627411,373.996094 
	C390.627411,372.046173 390.627411,370.313690 390.627411,368.134521 
	C383.543579,368.134521 376.766022,368.057861 369.995575,368.242035 
	C369.241028,368.262543 368.526855,369.766235 367.789978,371.377258 
M423.612030,371.089722 
	C423.612030,379.993011 423.612030,388.896332 423.612030,397.720398 
	C431.124603,397.720398 437.881622,397.720398 444.635376,397.720398 
	C444.635376,395.690399 444.635376,393.974731 444.635376,391.839630 
	C439.879333,391.839630 435.454987,391.839630 430.594086,391.839630 
	C430.594086,383.824921 430.594086,376.235474 430.594086,367.106506 
	C427.670593,368.406952 425.649078,369.306183 423.612030,371.089722 
M320.592651,387.450165 
	C320.592651,390.874115 320.592651,394.298065 320.592651,397.677338 
	C323.261963,397.677338 325.310425,397.677338 327.470459,397.677338 
	C327.470459,387.787354 327.470459,378.249390 327.470459,368.418213 
	C325.150818,368.418213 323.106323,368.418213 320.592682,368.418213 
	C320.592682,374.586761 320.592682,380.525330 320.592651,387.450165 
M364.749573,388.436401 
	C364.749573,381.851288 364.749573,375.266205 364.749573,368.407349 
	C362.133179,368.407349 360.090759,368.407349 357.912445,368.407349 
	C357.912445,378.364441 357.912445,388.045929 357.912445,397.660187 
	C360.294525,397.660187 362.334869,397.660187 364.749573,397.660187 
	C364.749573,394.669067 364.749573,392.041229 364.749573,388.436401 
M224.432449,368.138641 
	C223.252502,368.851746 221.064697,369.539154 221.045776,370.281830 
	C220.811279,379.485535 220.892609,388.697327 220.892609,397.762329 
	C223.580826,397.762329 225.516647,397.762329 227.928635,397.762329 
	C227.928635,388.443848 227.988358,379.367676 227.816345,370.295898 
	C227.802429,369.562317 226.198776,368.858887 224.432449,368.138641 
z"/>
<path fill="#31FDFD" opacity="1.000000" stroke="none" 
	d="
M287.172363,171.916412 
	C287.129150,148.451843 287.152252,125.475670 286.987885,102.500839 
	C286.963318,99.070763 288.053345,97.708580 291.486450,97.702072 
	C296.801422,97.692009 302.119019,97.437721 307.429169,97.164619 
	C310.185394,97.022865 311.350494,98.035400 311.264679,100.894867 
	C311.115662,105.861916 311.124420,110.839157 311.243683,115.807877 
	C311.822601,139.922943 312.464722,164.036499 313.075104,188.150803 
	C313.370667,199.826874 313.348572,199.840179 301.508453,199.944290 
	C287.780884,200.064987 287.829468,200.064697 287.746490,186.350281 
	C287.718323,181.700958 287.376404,177.053528 287.172363,171.916412 
z"/>
<path fill="#59A8B6" opacity="1.000000" stroke="none" 
	d="
M254.995468,153.866821 
	C254.995483,140.133392 254.995483,126.883980 254.995483,112.890205 
	C261.343872,112.533447 268.221893,112.146935 275.888367,111.716103 
	C276.264130,121.413628 276.837921,130.468079 276.919403,139.526947 
	C277.087067,158.172180 276.878998,176.821045 277.090363,195.465408 
	C277.137970,199.661621 275.775208,201.092438 271.668579,200.852356 
	C267.692963,200.619949 263.676697,200.815460 259.693390,201.064667 
	C256.383881,201.271713 254.868118,200.317749 254.914841,196.650558 
	C255.083847,183.384964 254.986328,170.115952 254.989807,156.848236 
	C254.990021,156.015778 254.993500,155.183319 254.995468,153.866821 
z"/>
<path fill="#40757E" opacity="1.000000" stroke="none" 
	d="
M243.425354,176.479095 
	C243.258301,183.593521 242.894897,190.246948 243.089630,196.883987 
	C243.200745,200.670242 241.723145,201.977356 238.220535,201.923447 
	C234.065964,201.859497 229.870728,202.264465 225.772964,201.784409 
	C224.196777,201.599762 221.582016,199.551086 221.569672,198.330231 
	C221.321365,173.767822 221.383911,149.202301 221.383911,124.123795 
	C228.474777,123.781418 234.733414,123.296188 240.986328,123.361511 
	C242.001862,123.372124 243.859756,125.820755 243.861832,127.144760 
	C243.887329,143.433350 243.639786,159.722351 243.425354,176.479095 
z"/>
<path fill="#050707" opacity="1.000000" stroke="none" 
	d="
M268.298309,82.374115 
	C276.826111,75.473343 285.073975,68.797607 293.504913,61.973679 
	C289.858582,58.761444 286.736359,56.010925 282.520935,52.297356 
	C293.430573,51.742790 302.750244,51.269039 312.959595,50.750069 
	C311.582397,61.427197 310.308777,71.301414 309.035126,81.175629 
	C308.607056,81.288033 308.179016,81.400444 307.750946,81.512848 
	C305.708954,78.422302 303.666962,75.331749 301.449554,71.975700 
	C279.276031,89.610710 253.917999,101.270126 227.287949,110.252022 
	C217.284714,113.625954 206.847855,115.740158 196.553391,118.196960 
	C195.001999,118.567200 193.147583,117.667702 191.433350,117.355568 
	C192.804565,116.332176 194.031067,114.794945 195.568527,114.361977 
	C221.203964,107.142799 245.821808,97.645439 268.298309,82.374115 
z"/>
<path fill="#2E575E" opacity="1.000000" stroke="none" 
	d="
M206.649597,200.899078 
	C202.016617,200.963470 197.838257,200.792480 193.687790,201.057907 
	C189.970383,201.295624 188.773132,199.921112 188.797989,196.206253 
	C188.937256,175.406143 188.865021,154.604614 188.865021,133.403839 
	C196.283035,133.403839 202.343201,133.403839 209.006683,133.403839 
	C209.117249,134.838974 209.346985,136.416351 209.343781,137.993271 
	C209.303894,157.650497 209.268814,177.308044 209.077774,196.963989 
	C209.065109,198.266754 207.799301,199.557358 206.649597,200.899078 
z"/>
<path fill="#080808" opacity="1.000000" stroke="none" 
	d="
M214.861542,273.660797 
	C216.735474,271.168396 218.318573,268.834320 219.811707,266.444031 
	C224.241791,259.352051 224.227936,259.343384 233.308533,260.528320 
	C233.308533,274.527985 233.308533,288.575592 233.308533,302.821106 
	C230.053757,302.821106 227.099182,302.821106 223.454315,302.821106 
	C223.454315,294.916382 223.454315,287.078186 223.454315,279.090576 
	C220.383347,281.925903 217.867371,286.097382 215.141617,286.239227 
	C212.480865,286.377716 209.605850,282.400513 206.615326,280.066559 
	C206.615326,287.112915 206.615326,294.702209 206.615326,302.649078 
	C202.870148,302.649078 199.819077,302.649078 196.392151,302.649078 
	C196.392151,288.708038 196.392151,274.681702 196.392151,260.684082 
	C205.096939,259.081116 205.268402,259.165131 209.412979,265.833557 
	C211.077789,268.512146 212.821671,271.141602 214.861542,273.660797 
z"/>
<path fill="#060606" opacity="1.000000" stroke="none" 
	d="
M278.296570,264.298523 
	C285.576508,258.710693 294.895081,258.212708 301.227814,262.907410 
	C305.055359,265.744904 307.044342,269.488495 306.685150,274.641602 
	C303.498077,274.641602 300.551239,274.641602 297.272919,274.641602 
	C296.944489,273.806580 296.830200,272.356354 296.066223,271.802795 
	C294.187714,270.441864 291.808136,268.356873 290.006165,268.677399 
	C287.925903,269.047394 284.924316,271.492065 284.650421,273.374542 
	C283.892792,278.581665 283.996857,283.994202 284.437531,289.268982 
	C284.760284,293.132263 287.787506,295.020844 291.566010,294.655945 
	C295.507568,294.275238 297.405975,291.891388 296.653412,287.441528 
	C294.551788,287.291626 292.466217,287.142853 290.102844,286.974274 
	C290.102844,284.473145 290.102844,282.058777 290.102844,279.335144 
	C295.565277,279.335144 300.949768,279.335144 306.728851,279.335144 
	C306.728851,283.301270 307.147675,287.127625 306.641113,290.827240 
	C305.605804,298.388885 299.851105,302.959869 291.591431,303.383392 
	C282.996307,303.824097 275.984802,299.919189 274.945068,292.392700 
	C273.654053,283.047089 271.475037,273.198944 278.296570,264.298523 
z"/>
<path fill="#040505" opacity="1.000000" stroke="none" 
	d="
M239.838898,262.281433 
	C242.897736,261.006744 245.942963,260.205109 249.752548,259.202271 
	C249.752548,271.545837 249.752548,282.595520 249.752548,294.195557 
	C256.781616,294.195557 263.323242,294.195557 270.157227,294.195557 
	C270.157227,297.327423 270.157227,299.902222 270.157227,302.744110 
	C260.080383,302.744110 250.213303,302.744110 239.825302,302.744110 
	C239.825302,289.265076 239.825302,276.009735 239.838898,262.281433 
z"/>
<path fill="#0A0B0A" opacity="1.000000" stroke="none" 
	d="
M58.280647,388.924774 
	C58.280651,381.824890 58.280651,375.214996 58.280651,368.847839 
	C67.390305,365.420410 67.392868,374.326721 71.419418,377.481506 
	C75.368431,374.253754 75.355949,365.821411 84.009018,368.565613 
	C84.009018,378.071472 84.009018,387.761871 84.009018,397.739929 
	C82.010208,397.739929 79.945145,397.739929 77.462288,397.739929 
	C77.462288,392.516602 77.462288,387.407867 77.462288,381.980530 
	C75.145691,383.772491 73.285599,386.313446 71.320656,386.397308 
	C69.619339,386.469879 67.799057,383.754700 65.596756,381.907135 
	C65.596756,387.224640 65.596756,392.268463 65.596756,397.662842 
	C63.076099,397.662842 61.025013,397.662842 58.280640,397.662842 
	C58.280640,394.951477 58.280640,392.183105 58.280647,388.924774 
z"/>
<path fill="#090909" opacity="1.000000" stroke="none" 
	d="
M239.005127,396.690247 
	C236.934280,397.537140 234.921082,397.917877 232.060440,398.458862 
	C232.060440,392.916687 232.060455,387.993469 232.060455,383.070251 
	C232.060455,378.280670 232.060440,373.491089 232.060440,368.791138 
	C236.593399,367.216095 239.325256,368.255371 241.261765,372.351715 
	C243.061142,376.157898 245.539001,379.643402 248.660507,382.951324 
	C248.660507,378.216736 248.660507,373.482147 248.660507,368.444336 
	C251.125595,368.444336 253.160828,368.444336 255.473419,368.444336 
	C255.473419,378.298523 255.473419,387.879059 255.473419,397.435944 
	C250.913788,399.202789 248.247604,397.580597 246.282211,393.469543 
	C244.453796,389.644958 242.053925,386.093597 239.062775,382.585999 
	C239.062775,387.132019 239.062775,391.678009 239.005127,396.690247 
z"/>
<path fill="#070707" opacity="1.000000" stroke="none" 
	d="
M118.035606,381.013947 
	C118.035606,376.569458 118.035606,372.621704 118.035606,368.299835 
	C123.341377,368.299835 128.144653,367.994049 132.887589,368.397583 
	C136.612091,368.714478 139.274536,370.987762 140.256073,374.855103 
	C141.489746,379.715790 139.661163,383.259125 135.277451,385.646118 
	C137.167496,389.735596 138.897766,393.479401 140.649124,397.268799 
	C133.945236,398.801941 133.945251,398.801941 131.302811,392.889252 
	C128.534500,386.694855 128.534485,386.694855 125.028610,386.307983 
	C125.028610,390.110809 125.028610,393.872253 125.028610,397.814880 
	C122.636009,397.814880 120.692139,397.814880 118.035606,397.814880 
	C118.035606,392.371796 118.035606,386.941254 118.035606,381.013947 
M125.036385,376.644287 
	C125.152214,378.016815 125.268051,379.389343 125.403809,380.998016 
	C127.792267,380.800903 130.106201,381.274261 131.224579,380.330688 
	C132.341766,379.388092 133.095459,375.872040 132.563080,375.488037 
	C130.261780,373.828033 127.414711,372.655457 125.036385,376.644287 
z"/>
<path fill="#0A0A0A" opacity="1.000000" stroke="none" 
	d="
M338.407776,386.725983 
	C338.667389,390.256683 340.047180,392.565094 343.374786,391.953033 
	C344.972443,391.659149 346.294647,389.867828 347.741577,388.754669 
	C347.516968,388.328613 347.292358,387.902557 347.067749,387.476501 
	C345.678467,387.253510 344.289185,387.030518 342.418579,386.730255 
	C342.336426,385.263489 342.248566,383.694824 342.135864,381.682281 
	C346.202881,381.682281 349.897949,381.682281 353.576202,381.682281 
	C355.598297,393.325897 350.579681,399.548920 340.426819,398.105469 
	C340.097198,398.058594 339.757690,398.051300 339.438293,397.966797 
	C330.895538,395.706329 329.902222,387.959869 331.981750,375.448090 
	C333.026703,369.160889 340.578491,366.173401 347.289459,368.643890 
	C351.556702,370.214783 354.168549,373.034515 353.954102,378.135406 
	C350.799652,378.291321 347.720795,379.632690 345.926971,375.489746 
	C345.529510,374.571777 342.851593,373.913025 341.586395,374.305084 
	C340.339722,374.691467 338.934906,376.452820 338.694580,377.805450 
	C338.206116,380.555176 338.455658,383.436005 338.407776,386.725983 
z"/>
<path fill="#0A0A0A" opacity="1.000000" stroke="none" 
	d="
M279.695648,381.270142 
	C284.135498,383.726074 282.545654,387.897552 281.567169,390.409424 
	C280.408875,393.382935 277.352234,396.672302 274.387329,397.685608 
	C266.039001,400.538757 259.467682,395.320343 259.306335,386.428436 
	C259.240295,382.787781 259.203674,379.046234 259.940155,375.514587 
	C261.086273,370.018402 266.374542,367.194763 272.824219,368.010986 
	C278.475281,368.726135 281.615082,372.181427 281.782379,378.133850 
	C278.859344,378.236908 275.750580,379.810120 273.965271,375.537811 
	C273.578583,374.612366 270.913544,373.914795 269.643463,374.288025 
	C268.394135,374.655182 266.878601,376.430084 266.718048,377.739136 
	C266.296082,381.179382 266.106232,384.784088 266.731079,388.155151 
	C267.012756,389.674896 269.373505,391.698486 270.937469,391.836823 
	C272.448120,391.970367 274.147186,389.973328 275.763458,388.912170 
	C275.530212,388.431610 275.296967,387.951019 275.063721,387.470459 
	C273.671112,387.248138 272.278473,387.025818 270.412933,386.728027 
	C270.333679,385.254761 270.249146,383.682922 270.118927,381.261932 
	C273.410675,381.261932 276.325958,381.261932 279.695648,381.270142 
z"/>
<path fill="#070707" opacity="1.000000" stroke="none" 
	d="
M311.417023,396.799255 
	C305.638641,397.458923 300.231049,397.958160 294.402771,398.496246 
	C294.402771,388.076752 294.402771,378.394012 294.402771,368.168274 
	C301.980804,368.941467 310.628082,365.161163 315.716217,373.757172 
	C319.276093,379.771332 316.520721,393.041840 311.417023,396.799255 
M309.716888,384.316650 
	C309.713470,374.371124 309.060333,373.592804 301.355225,374.620667 
	C301.355225,380.330139 301.355225,386.064636 301.355225,391.778595 
	C308.704163,392.219788 309.297302,391.734528 309.716888,384.316650 
z"/>
<path fill="#0B0B0B" opacity="1.000000" stroke="none" 
	d="
M147.040924,398.021942 
	C145.811508,397.227814 144.356583,396.447296 144.341888,395.640564 
	C144.178986,386.702148 144.239349,377.759644 144.239349,368.476318 
	C146.749786,368.476318 148.803116,368.476318 151.396515,368.476318 
	C151.396515,371.778778 151.396515,375.012115 151.396515,378.989136 
	C157.214966,375.130127 158.182526,365.210632 167.991302,368.745270 
	C165.558792,372.065918 163.309341,375.475677 160.697647,378.580750 
	C159.003387,380.595093 159.065582,382.111450 160.444183,384.230988 
	C163.213989,388.489502 165.707108,392.928009 168.314423,397.292206 
	C167.982971,397.836426 167.651520,398.380615 167.320068,398.924835 
	C164.651978,397.757233 161.430649,397.165131 159.460693,395.271332 
	C157.175995,393.075012 155.990265,389.735535 154.327499,386.892273 
	C153.788406,386.858337 153.249329,386.824371 152.710236,386.790436 
	C152.051529,390.404449 151.392807,394.018494 150.696548,397.838562 
	C149.777344,397.891479 148.630798,397.957428 147.040924,398.021942 
z"/>
<path fill="#090909" opacity="1.000000" stroke="none" 
	d="
M413.774719,376.139282 
	C416.063934,383.474030 418.230652,390.428680 420.515198,397.761536 
	C416.912750,397.717255 413.688202,399.600006 411.493378,394.705963 
	C410.920563,393.428680 402.485962,393.497253 401.945587,394.768524 
	C399.785767,399.849365 396.411621,397.553040 392.971863,397.809601 
	C395.856079,388.589966 398.748413,379.769348 401.337341,370.860596 
	C402.380493,367.271057 404.991058,368.294312 407.312073,368.130890 
	C409.589874,367.970490 411.635254,368.022949 412.128052,371.029358 
	C412.393005,372.645813 413.128845,374.185120 413.774719,376.139282 
M408.597412,382.093445 
	C408.014191,380.502655 407.430969,378.911835 406.502106,376.378174 
	C405.325500,380.868134 404.431305,384.280426 403.482300,387.901917 
	C405.995056,387.901917 407.909027,387.901917 410.063232,387.901917 
	C409.612488,386.033691 409.229584,384.446747 408.597412,382.093445 
z"/>
<path fill="#090909" opacity="1.000000" stroke="none" 
	d="
M88.428154,394.616699 
	C90.994629,386.632904 93.614456,379.100342 95.688087,371.420319 
	C96.608597,368.011078 98.664169,368.123260 101.243301,368.091278 
	C103.862907,368.058777 105.919701,368.066528 106.860641,371.385010 
	C109.344261,380.144135 112.223740,388.791046 115.058830,397.844177 
	C111.615929,397.524658 107.947166,400.006653 106.316200,394.615967 
	C105.642723,392.389954 97.345840,394.063141 95.443855,395.798065 
	C93.952446,397.158386 91.366669,397.344025 89.222343,397.868652 
	C89.139557,397.888885 88.590836,396.004669 88.428154,394.616699 
M100.059082,379.853058 
	C99.370712,382.483978 98.682343,385.114929 97.956894,387.887573 
	C100.402191,387.887573 102.324837,387.887573 104.655975,387.887573 
	C103.604340,384.166931 102.650116,380.790955 101.528603,376.823090 
	C100.880554,377.988342 100.567223,378.551758 100.059082,379.853058 
z"/>
<path fill="#040505" opacity="1.000000" stroke="none" 
	d="
M171.041306,375.123901 
	C171.041306,372.683167 171.041306,370.726379 171.041306,368.459625 
	C178.203186,368.459625 184.915726,368.459625 191.926453,368.459625 
	C192.025406,370.236877 192.115097,371.847778 192.233765,373.978882 
	C187.635910,373.978882 183.234085,373.978882 178.465363,373.978882 
	C178.465363,376.157410 178.465363,377.836609 178.465363,379.905792 
	C181.311646,379.905792 184.074738,379.905792 187.102081,379.905792 
	C187.102081,382.036163 187.102081,383.783997 187.102081,385.926605 
	C184.093079,385.926605 181.336990,385.926605 178.344437,385.926605 
	C178.344437,388.041016 178.344437,389.765472 178.344437,391.963135 
	C182.898071,391.963135 187.318848,391.963135 191.938751,391.963135 
	C191.938751,394.036591 191.938751,395.644897 191.938751,397.635437 
	C185.270111,397.635437 178.548782,397.635437 171.041306,397.635437 
	C171.041306,390.416565 171.041306,383.012238 171.041306,375.123901 
z"/>
<path fill="#0D0E0D" opacity="1.000000" stroke="none" 
	d="
M194.480682,372.566742 
	C194.065460,369.299011 194.909607,367.919067 198.198578,368.047882 
	C204.475250,368.293671 210.768387,368.119232 217.385498,368.119232 
	C217.385498,370.339233 217.385498,372.066284 217.385498,374.044159 
	C214.928116,374.171448 212.635529,374.290192 209.677490,374.443420 
	C209.677490,382.218445 209.677490,389.937500 209.677490,397.831848 
	C207.046356,397.831848 205.087570,397.831848 202.467377,397.831848 
	C202.467377,390.084900 202.467377,382.367279 202.467377,375.091003 
	C199.338638,374.258148 196.929306,373.616760 194.480682,372.566742 
z"/>
<path fill="#0A0B0A" opacity="1.000000" stroke="none" 
	d="
M367.791962,370.979675 
	C368.526855,369.766235 369.241028,368.262543 369.995575,368.242035 
	C376.766022,368.057861 383.543579,368.134521 390.627411,368.134521 
	C390.627411,370.313690 390.627411,372.046173 390.627411,373.996094 
	C388.117004,374.155731 385.675751,374.311005 382.811340,374.493134 
	C382.811340,382.218842 382.811340,389.805634 382.811340,397.701965 
	C380.321960,397.701965 378.258789,397.701965 375.726349,397.701965 
	C375.726349,390.119049 375.726349,382.546143 375.726349,375.820221 
	C373.490387,372.304474 368.039795,377.231628 367.791962,370.979675 
z"/>
<path fill="#080808" opacity="1.000000" stroke="none" 
	d="
M423.619812,370.647583 
	C425.649078,369.306183 427.670593,368.406952 430.594086,367.106506 
	C430.594086,376.235474 430.594086,383.824921 430.594086,391.839630 
	C435.454987,391.839630 439.879333,391.839630 444.635376,391.839630 
	C444.635376,393.974731 444.635376,395.690399 444.635376,397.720398 
	C437.881622,397.720398 431.124603,397.720398 423.612030,397.720398 
	C423.612030,388.896332 423.612030,379.993011 423.619812,370.647583 
z"/>
<path fill="#0C0D0D" opacity="1.000000" stroke="none" 
	d="
M320.592651,386.957031 
	C320.592682,380.525330 320.592682,374.586761 320.592682,368.418213 
	C323.106323,368.418213 325.150818,368.418213 327.470459,368.418213 
	C327.470459,378.249390 327.470459,387.787354 327.470459,397.677338 
	C325.310425,397.677338 323.261963,397.677338 320.592651,397.677338 
	C320.592651,394.298065 320.592651,390.874115 320.592651,386.957031 
z"/>
<path fill="#0C0D0D" opacity="1.000000" stroke="none" 
	d="
M364.749573,388.924866 
	C364.749573,392.041229 364.749573,394.669067 364.749573,397.660187 
	C362.334869,397.660187 360.294525,397.660187 357.912445,397.660187 
	C357.912445,388.045929 357.912445,378.364441 357.912445,368.407349 
	C360.090759,368.407349 362.133179,368.407349 364.749573,368.407349 
	C364.749573,375.266205 364.749573,381.851288 364.749573,388.924866 
z"/>
<path fill="#070707" opacity="1.000000" stroke="none" 
	d="
M224.883148,368.140045 
	C226.198776,368.858887 227.802429,369.562317 227.816345,370.295898 
	C227.988358,379.367676 227.928635,388.443848 227.928635,397.762329 
	C225.516647,397.762329 223.580826,397.762329 220.892609,397.762329 
	C220.892609,388.697327 220.811279,379.485535 221.045776,370.281830 
	C221.064697,369.539154 223.252502,368.851746 224.883148,368.140045 
z"/>
<path fill="#C0C6C4" opacity="1.000000" stroke="none" 
	d="
M125.045975,376.213440 
	C127.414711,372.655457 130.261780,373.828033 132.563080,375.488037 
	C133.095459,375.872040 132.341766,379.388092 131.224579,380.330688 
	C130.106201,381.274261 127.792267,380.800903 125.403809,380.998016 
	C125.268051,379.389343 125.152214,378.016815 125.045975,376.213440 
z"/>
<path fill="#C9D0CE" opacity="1.000000" stroke="none" 
	d="
M309.716339,384.757172 
	C309.297302,391.734528 308.704163,392.219788 301.355225,391.778595 
	C301.355225,386.064636 301.355225,380.330139 301.355225,374.620667 
	C309.060333,373.592804 309.713470,374.371124 309.716339,384.757172 
z"/>
<path fill="#C6CCCB" opacity="1.000000" stroke="none" 
	d="
M408.722046,382.476624 
	C409.229584,384.446747 409.612488,386.033691 410.063232,387.901917 
	C407.909027,387.901917 405.995056,387.901917 403.482300,387.901917 
	C404.431305,384.280426 405.325500,380.868134 406.502106,376.378174 
	C407.430969,378.911835 408.014191,380.502655 408.722046,382.476624 
z"/>
<path fill="#C6CCCB" opacity="1.000000" stroke="none" 
	d="
M100.156494,379.484100 
	C100.567223,378.551758 100.880554,377.988342 101.528603,376.823090 
	C102.650116,380.790955 103.604340,384.166931 104.655975,387.887573 
	C102.324837,387.887573 100.402191,387.887573 97.956894,387.887573 
	C98.682343,385.114929 99.370712,382.483978 100.156494,379.484100 
z"/>
</svg>